# xmcd
#
# Track frame offsets:
#	150
#	14050
#	24320
#	35544
#	58872
#	79134
#	99317
#	111427
#	125414
#	137446
#	147672
#	157126
#	167922
#	179684
#	193319
#	204566
#	220104
#	231907
#	243670
#	256358
#	274178
#
# Disc length: 4318
#
# Revision: 4
# Processed by: cddbd v1.5.1PL0 Copyright (c) Steve Scherf et al.
# Submitted via: WaveLab 4.01
# Normalized: r3:TRMNUM
#
DISCID=4710dc15
DTITLE=Creedance Clearwater Revival - Really The Best 
DYEAR=1994
DGENRE=
TTITLE0=Proud Mary
TTITLE1=Bad Moon Rising
TTITLE2=Green River
TTITLE3=Born On The Bayou
TTITLE4=Suzy Q Part 1
TTITLE5=I Put A Spell On You
TTITLE6=Down On The Corner
TTITLE7=Lodi
TTITLE8=Commotion
TTITLE9=Fortunate Son
TTITLE10=Ravelin Band
TTITLE11=Who'll Stop The Rain
TTITLE12=Up Around The Bend
TTITLE13=Run Through The Jungle
TTITLE14=Lookin Out My Backdoor
TTITLE15=Long As I Can See The Light
TTITLE16=Have You Ever Seen The Rain
TTITLE17=Hey Tonight
TTITLE18=Sweet Hitch-Hiker
TTITLE19=Someday Never Comes
TTITLE20=I Heard It Through The Gravevine
EXTD=
EXTT0=
EXTT1=
EXTT2=
EXTT3=
EXTT4=
EXTT5=
EXTT6=
EXTT7=
EXTT8=
EXTT9=
EXTT10=
EXTT11=
EXTT12=
EXTT13=
EXTT14=
EXTT15=
EXTT16=
EXTT17=
EXTT18=
EXTT19=
EXTT20=
PLAYORDER=
